<svg xmlns="http://www.w3.org/2000/svg" viewBox="0 0 100 100">
  <defs>
    <linearGradient id="flameGradient" x1="0%" y1="0%" x2="0%" y2="100%">
      <stop offset="0%" style="stop-color:#ff6b35;stop-opacity:1" />
      <stop offset="50%" style="stop-color:#f7931e;stop-opacity:1" />
      <stop offset="100%" style="stop-color:#ff4757;stop-opacity:1" />
    </linearGradient>
  </defs>

  <!-- Bucket -->
  <path d="M25 75 L25 55 L75 55 L75 75 Z" fill="#4a5568" stroke="#2d3748" stroke-width="2"/>
  <path d="M20 55 L25 55 L25 50 L75 50 L80 55 Z" fill="#718096" stroke="#4a5568" stroke-width="2"/>

  <!-- Handle -->
  <path d="M15 45 Q15 35 25 35 L25 40 Q20 40 20 45 Z" fill="none" stroke="#4a5568" stroke-width="3"/>
  <path d="M75 35 Q85 35 85 45 Q85 40 80 40 L75 40 Z" fill="none" stroke="#4a5568" stroke-width="3"/>

  <!-- Flame -->
  <path d="M45 20 Q40 15 42 10 Q45 8 48 10 Q50 15 45 20 Z" fill="url(#flameGradient)"/>
  <path d="M45 25 Q42 20 44 15 Q45 13 46 15 Q48 20 45 25 Z" fill="url(#flameGradient)" opacity="0.8"/>
  <path d="M45 30 Q43 25 45 20 Q45 18 45 20 Q47 25 45 30 Z" fill="url(#flameGradient)" opacity="0.6"/>

  <!-- Water droplets -->
  <circle cx="35" cy="70" r="2" fill="#4299e1"/>
  <circle cx="45" cy="72" r="1.5" fill="#4299e1"/>
  <circle cx="55" cy="68" r="2.5" fill="#4299e1"/>
  <circle cx="65" cy="71" r="1.8" fill="#4299e1"/>
</svg>
